<svg xmlns="http://www.w3.org/2000/svg" version="1.1" xmlns:xlink="http://www.w3.org/1999/xlink" xmlns:svgjs="http://svgjs.dev/svgjs" width="1500" height="1500" viewBox="0 0 1500 1500"><rect width="1500" height="1500" fill="#ffffff"></rect><g transform="matrix(0.6666666666666666,0,0,0.6666666666666666,249.39393939393938,435.99032258064517)"><svg viewBox="0 0 396 248" data-background-color="#0b022d" preserveAspectRatio="xMidYMid meet" height="939" width="1500" xmlns="http://www.w3.org/2000/svg" xmlns:xlink="http://www.w3.org/1999/xlink"><g id="tight-bounds" transform="matrix(1,0,0,1,0.2400000000000091,0.4000000000000057)"><svg viewBox="0 0 395.52 247.2" height="247.2" width="395.52"><g><svg></svg></g><g><svg viewBox="0 0 395.52 247.2" height="247.2" width="395.52"><g transform="matrix(1,0,0,1,75.54432,100.90213325839827)"><svg viewBox="0 0 244.43135999999998 45.395733483203465" height="45.395733483203465" width="244.43135999999998"><g><svg viewBox="0 0 244.43135999999998 45.395733483203465" height="45.395733483203465" width="244.43135999999998"><g><svg viewBox="0 0 244.43136 45.39573348320347" height="45.395733483203465" width="244.43135999999998"><g><svg viewBox="0 0 244.43136 45.39573348320347" height="45.39573348320347" width="244.43136"><g id="textblocktransform"><svg viewBox="0 0 244.43136 45.39573348320347" height="45.39573348320347" width="244.43136" id="textblock"><g><svg viewBox="0 0 244.43136 45.39573348320347" height="45.39573348320347" width="244.43136"><g transform="matrix(1,0,0,1,0,0)"><svg width="244.43136" viewBox="0.44 -35.5 191.12 35.5" height="45.39573348320347" data-palette-color="#f7fff7"><path d="M17.94-28L17.94 0 10.96 0 10.96-28 0.44-28 0.44-35.01 28.44-35.01 28.44-28 17.94-28ZM37.69-13.99L51.71-13.99 51.71-21Q51.71-22.44 51.16-23.72 50.61-25 49.66-25.95 48.7-26.9 47.42-27.45 46.14-28 44.7-28L44.7-28Q43.26-28 41.98-27.45 40.7-26.9 39.74-25.95 38.79-25 38.24-23.72 37.69-22.44 37.69-21L37.69-21 37.69-13.99ZM58.71-21L58.71 0 51.71 0 51.71-7.01 37.69-7.01 37.69 0 30.71 0 30.71-21Q30.71-23.9 31.81-26.45 32.91-29 34.8-30.91 36.69-32.81 39.24-33.91 41.79-35.01 44.7-35.01L44.7-35.01Q47.6-35.01 50.16-33.91 52.71-32.81 54.61-30.91 56.52-29 57.61-26.45 58.71-23.9 58.71-21L58.71-21ZM62.74-24.51L62.74-24.51Q62.74-26.68 63.57-28.59 64.4-30.49 65.83-31.92 67.26-33.35 69.16-34.18 71.06-35.01 73.24-35.01L73.24-35.01 89.3-35.01 89.3-28 73.24-28Q72.5-28 71.87-27.73 71.24-27.47 70.76-26.99 70.28-26.51 70.01-25.88 69.75-25.24 69.75-24.51L69.75-24.51Q69.75-23.78 70.01-23.13 70.28-22.49 70.76-22.01 71.24-21.53 71.87-21.26 72.5-21 73.24-21L73.24-21 80.24-21Q82.42-21 84.33-20.18 86.25-19.36 87.68-17.93 89.11-16.5 89.92-14.59 90.74-12.67 90.74-10.5L90.74-10.5Q90.74-8.33 89.92-6.42 89.11-4.52 87.68-3.09 86.25-1.66 84.33-0.83 82.42 0 80.24 0L80.24 0 64.69 0 64.69-7.01 80.24-7.01Q80.98-7.01 81.61-7.28 82.25-7.54 82.72-8.02 83.2-8.5 83.47-9.13 83.74-9.77 83.74-10.5L83.74-10.5Q83.74-11.23 83.47-11.87 83.2-12.5 82.72-12.98 82.25-13.45 81.61-13.72 80.98-13.99 80.24-13.99L80.24-13.99 73.24-13.99Q71.06-13.99 69.16-14.82 67.26-15.65 65.83-17.08 64.4-18.51 63.57-20.42 62.74-22.34 62.74-24.51ZM102.34-7.01L102.34 0 95.33 0 95.33-35.01 102.34-35.01 102.34-17.5 115.37-35.01 123.33-35.01 112.27-20.24 123.33 0 115.37 0 107.68-14.16 102.34-7.01ZM161.32-25L161.32 0 154.34 0 154.34-25Q154.34-25.73 154.05-26.37 153.77-27 153.3-27.48 152.82-27.95 152.19-28.22 151.55-28.49 150.82-28.49L150.82-28.49Q150.09-28.49 149.45-28.22 148.82-27.95 148.34-27.48 147.87-27 147.6-26.37 147.33-25.73 147.33-25L147.33-25 147.33 0 140.32 0 140.32-25Q140.32-25.73 140.05-26.37 139.78-27 139.31-27.48 138.83-27.95 138.2-28.22 137.56-28.49 136.83-28.49L136.83-28.49Q136.1-28.49 135.46-28.22 134.83-27.95 134.35-27.48 133.88-27 133.61-26.37 133.34-25.73 133.34-25L133.34-25 133.34 0 126.33 0 126.33-25Q126.33-27.17 127.15-29.09 127.97-31.01 129.4-32.43 130.82-33.86 132.74-34.68 134.66-35.5 136.83-35.5L136.83-35.5Q138.78-35.5 140.59-34.8 142.4-34.11 143.84-32.79L143.84-32.79Q145.28-34.11 147.07-34.8 148.87-35.5 150.82-35.5L150.82-35.5Q152.99-35.5 154.91-34.68 156.83-33.86 158.25-32.43 159.68-31.01 160.5-29.09 161.32-27.17 161.32-25L161.32-25ZM191.56-7.01L191.56 0 167.57 0 167.57-35.01 191.56-35.01 191.56-28 174.57-28 174.57-21 186.07-21 186.07-13.99 174.57-13.99 174.57-7.01 191.56-7.01Z" opacity="1" transform="matrix(1,0,0,1,0,0)" fill="#000000" class="wordmark-text-0" data-fill-palette-color="primary" id="text-0"></path></svg></g></svg></g></svg></g></svg></g></svg></g></svg></g></svg></g><path d="M187.696 94.902L187.696 33.545 7.587 33.545 7.587 213.655 187.696 213.655 187.696 152.298 183.602 152.298 183.602 209.561 11.68 209.561 11.68 37.639 183.602 37.639 183.602 94.902Z" fill="#000000" stroke="transparent" data-fill-palette-color="tertiary"></path></svg></g><defs></defs></svg><rect width="395.52" height="247.2" fill="none" stroke="none" visibility="hidden"></rect></g></svg></g></svg>